<svg version="1.1" xmlns="http://www.w3.org/2000/svg" xmlns:xlink="http://www.w3.org/1999/xlink" width="56" height="56"><defs/><g><path fill="rgb(255,255,32)" stroke="rgb(0,0,0)" paint-order="fill stroke markers" d=" M 15 8 C 25 8 40 18 45 28 C 40 38 25 48 15 48 C 25 28 25 28 15 8 Z" fill-opacity="0.8" stroke-opacity="1" stroke-miterlimit="10" stroke-width="3" stroke-dasharray=""/><path fill="none" stroke="rgb(0,0,0)" paint-order="fill stroke markers" d=" M 4.694631307311823 7.774575140626311 A 25 25 0 0 1 4.694631307311829 48.22542485937369" stroke-opacity="1" stroke-miterlimit="10" stroke-width="3" stroke-dasharray=""/><path fill="none" stroke="rgb(0,0,0)" paint-order="fill stroke markers" d=" M 55 28 A 5 5 0 1 1 54.999997500000205 27.99500000083333" stroke-opacity="1" stroke-miterlimit="10" stroke-width="3" stroke-dasharray=""/><path fill="green" stroke="none" paint-order="stroke fill markers" d=" M 8 18 A 3 3 0 1 1 7.999998500000125 17.997000000499998 Z"/><path fill="green" stroke="none" paint-order="stroke fill markers" d=" M 8 38 A 3 3 0 1 1 7.999998500000125 37.9970000005 Z"/><path fill="green" stroke="none" paint-order="stroke fill markers" d=" M 58 28 A 3 3 0 1 1 57.999998500000125 27.997000000499998 Z"/></g></svg>